# xmcd
#
# Track frame offsets:
#     150
#     15497
#     26952
#     36885
#     49177
#     60375
#     72445
#     83317
#     95377
#     107800
#     120987
#     133545
#     145172
#     157137
#     173852
#     183665
#     194592
#     207235
#     216937
#     228437
#     244282
#     255057
#     266400
#     279295
#     290507
#     302202
#     315417
#
# Disc length: 4341
#
# Revision: 3
# Processed by: cddbd v1.5.2PL0 Copyright (c) Steve Scherf et al.
# Submitted via: jack 3.1.1
#
DISCID=8110f31b
DTITLE=John Lee Hooker - Boom Boom (Compilation)
DYEAR=0
DGENRE=Blues
TTITLE0=Tupelo
TTITLE1=Boogie Chillum
TTITLE2=Dimples
TTITLE3=Drug Store Woman
TTITLE4=Boom Boom
TTITLE5=Frisco Blues
TTITLE6=No Shoe
TTITLE7=I'm In The Mood
TTITLE8=Hobo Blues
TTITLE9=Baby Lee
TTITLE10=Trouble Blues
TTITLE11=Little Wheel
TTITLE12=Whiskey And Wimmen
TTITLE13=Process
TTITLE14=Dusty Road
TTITLE15=Send Me Your Pillow
TTITLE16=I'm So Excited
TTITLE17=Onions
TTITLE18=Good Rockin' Mama
TTITLE19=Thelma
TTITLE20=Keep Your Hands To Yourself
TTITLE21=What Do You Say
TTITLE22=Lost A Good Girl
TTITLE23=Let's Make It
TTITLE24=Hard Hearted Woman
TTITLE25=I'm Going Upstairs
TTITLE26=I'm Leaving
EXTD=
EXTT0=
EXTT1=
EXTT2=
EXTT3=
EXTT4=
EXTT5=
EXTT6=
EXTT7=
EXTT8=
EXTT9=
EXTT10=
EXTT11=
EXTT12=
EXTT13=
EXTT14=
EXTT15=
EXTT16=
EXTT17=
EXTT18=
EXTT19=
EXTT20=
EXTT21=
EXTT22=
EXTT23=
EXTT24=
EXTT25=
EXTT26=
PLAYORDER=
